<?xml version="1.0" encoding="UTF-8" standalone="no"?>
<!-- Created with Inkscape (http://www.inkscape.org/) -->

<svg
   xmlns:dc="http://purl.org/dc/elements/1.1/"
   xmlns:cc="http://creativecommons.org/ns#"
   xmlns:rdf="http://www.w3.org/1999/02/22-rdf-syntax-ns#"
   xmlns:svg="http://www.w3.org/2000/svg"
   xmlns="http://www.w3.org/2000/svg"
   xmlns:sodipodi="http://sodipodi.sourceforge.net/DTD/sodipodi-0.dtd"
   xmlns:inkscape="http://www.inkscape.org/namespaces/inkscape"
   width="392.48126"
   height="45.5625"
   id="svg2"
   version="1.1"
   inkscape:version="0.48.2 r9819"
   sodipodi:docname="logo.svg">
  <defs
     id="defs4" />
  <sodipodi:namedview
     id="base"
     pagecolor="#ffffff"
     bordercolor="#666666"
     borderopacity="1.0"
     inkscape:pageopacity="0.0"
     inkscape:pageshadow="2"
     inkscape:zoom="2.1779313"
     inkscape:cx="37.700687"
     inkscape:cy="22.781249"
     inkscape:document-units="px"
     inkscape:current-layer="text2985"
     showgrid="false"
     fit-margin-top="0"
     fit-margin-left="0"
     fit-margin-right="0"
     fit-margin-bottom="0"
     inkscape:window-width="1366"
     inkscape:window-height="706"
     inkscape:window-x="-8"
     inkscape:window-y="-8"
     inkscape:window-maximized="1" />
  <metadata
     id="metadata7">
    <rdf:RDF>
      <cc:Work
         rdf:about="">
        <dc:format>image/svg+xml</dc:format>
        <dc:type
           rdf:resource="http://purl.org/dc/dcmitype/StillImage" />
        <dc:title></dc:title>
      </cc:Work>
    </rdf:RDF>
  </metadata>
  <g
     inkscape:label="Layer 1"
     inkscape:groupmode="layer"
     id="layer1"
     transform="translate(-155.89732,-239.75949)">
    <g
       style="font-size:20px;font-style:normal;font-weight:normal;line-height:125%;letter-spacing:0px;word-spacing:0px;fill:#000000;fill-opacity:1;stroke:none;font-family:Sans"
       id="text2985">
      <path
         d="m 186.30357,283.79074 -30.40625,0 0,-42.65625 11.09375,0 0,33.375 19.3125,0 z"
         style="fill:#a10000;fill-opacity:1"
         id="path3766"
         inkscape:connector-curvature="0"
         sodipodi:nodetypes="ccccccc" />
      <path
         d="m 232.07357,283.79074 -11.84375,0 -2.75,-7.4375 -15.3125,0 -2.9375,7.4375 -11.71875,0 16.40625,-42.65625 12.09375,0 z m -17.59375,-15.875 -4.59375,-13.59375 -4.65625,13.59375 z"
         style="fill:#a10000;fill-opacity:1"
         id="path3768"
         inkscape:connector-curvature="0" />
      <path
         d="m 264.12482,269.66574 c -3e-5,7.20834 -3.16669,11.90625 -9.5,14.09375 -2.20835,0.77083 -4.58335,1.15625 -7.125,1.15625 -5.33334,0 -10.28125,-1.61458 -14.84375,-4.84375 l 4.75,-8.9375 c 3.33333,3.00001 6.59374,4.50001 9.78125,4.5 1.43749,10e-6 2.65623,-0.33332 3.65625,-1 1.16665,-0.74999 1.74998,-1.81249 1.75,-3.1875 -2e-5,-1.24999 -0.64585,-2.29165 -1.9375,-3.125 -0.95835,-0.62498 -2.57293,-1.2604 -4.84375,-1.90625 -2.75001,-0.81248 -4.47917,-1.37498 -5.1875,-1.6875 -1.125,-0.47915 -2.08334,-1.04165 -2.875,-1.6875 -2.27083,-1.87498 -3.40625,-4.70831 -3.40625,-8.5 0,-3.9583 1.17708,-7.23955 3.53125,-9.84375 2.74999,-3.06246 6.41666,-4.59371 11,-4.59375 4.60415,4e-5 9.11456,1.15629 13.53125,3.46875 l -4.4375,8.625 c -2.41669,-1.87497 -4.85419,-2.81246 -7.3125,-2.8125 -1.18751,4e-5 -2.25001,0.30212 -3.1875,0.90625 -1.06251,0.68753 -1.59376,1.6042 -1.59375,2.75 -1e-5,1.12503 0.6979,2.09378 2.09375,2.90625 0.62499,0.37503 2.49998,1.02086 5.625,1.9375 3.91664,1.14586 6.70831,2.77086 8.375,4.875 1.43747,1.79169 2.15622,4.09377 2.15625,6.90625 z"
         style="fill:#a10000;fill-opacity:1"
         id="path3770"
         inkscape:connector-curvature="0" />
      <path
         d="m 293.98857,250.41574 -9.1875,0 0,33.375 -11.09375,0 0,-33.375 -9.03125,0 0,-9.28125 29.3125,0 z"
         style="fill:#a10000;fill-opacity:1"
         id="path3772"
         inkscape:connector-curvature="0" />
      <path
         d="m 307.44608,283.79074 -11.09375,0 0,-42.65625 11.09375,0 z"
         style="fill:#a10000;fill-opacity:1"
         id="path3774"
         inkscape:connector-curvature="0" />
      <path
         d="m 352.59108,283.79074 -11.09375,0 -20.40625,-26.125 0,26.125 -11.09375,0 0,-42.65625 11.09375,0 20.40625,26.09375 0,-26.09375 11.09375,0 z"
         style="fill:#a10000;fill-opacity:1"
         id="path3776"
         inkscape:connector-curvature="0" />
      <path
         d="m 399.76732,260.10324 c -5e-5,4.62502 -0.52088,8.39585 -1.5625,11.3125 -1.58338,4.43751 -4.19796,7.85417 -7.84375,10.25 -3.52087,2.29167 -7.68753,3.4375 -12.5,3.4375 -7.83335,0 -13.84376,-2.66666 -18.03125,-8 -3.16667,-4.04165 -4.75,-8.86457 -4.75,-14.46875 0,-6.20831 1.85416,-11.42705 5.5625,-15.65625 4.20832,-4.81246 10.08331,-7.21871 17.625,-7.21875 5.04163,4e-5 9.31246,1.29171 12.8125,3.875 2.49996,1.83337 4.63537,4.5417 6.40625,8.125 l -10.53125,4.34375 c -0.89587,-1.99997 -1.93753,-3.49997 -3.125,-4.5 -1.70836,-1.41663 -3.73961,-2.12496 -6.09375,-2.125 -4.81252,4e-5 -8.16668,2.48962 -10.0625,7.46875 -0.70835,1.83336 -1.06252,3.72919 -1.0625,5.6875 -2e-5,4.06252 1.28123,7.44793 3.84375,10.15625 1.89581,2.02084 4.42706,3.03126 7.59375,3.03125 2.81247,10e-6 5.04163,-0.82291 6.6875,-2.46875 1.0833,-1.08332 1.79163,-2.68749 2.125,-4.8125 l -9.09375,0 0,-8.4375 z"
         style="fill:#a10000;fill-opacity:1"
         id="path3778"
         inkscape:connector-curvature="0" />
      <path
         d="m 434.69359,283.79074 -30.40625,0 0,-42.65625 11.09375,0 0,33.375 19.3125,0 z"
         style="font-weight:normal;fill:#d90000;fill-opacity:1"
         id="path3780"
         inkscape:connector-curvature="0"
         sodipodi:nodetypes="ccccccc" />
      <path
         d="m 481.24483,262.60324 c -5e-5,5.79168 -1.92713,10.87501 -5.78125,15.25 -4.39588,4.97917 -10.34379,7.46875 -17.84375,7.46875 -7.47919,0 -13.41668,-2.48958 -17.8125,-7.46875 -3.85417,-4.37499 -5.78126,-9.45832 -5.78125,-15.25 -10e-6,-2.64581 0.52083,-5.35935 1.5625,-8.14062 1.04166,-2.78122 2.43749,-5.16143 4.1875,-7.14063 4.39582,-4.97912 10.34373,-7.46871 17.84375,-7.46875 7.49996,4e-5 13.44787,2.48963 17.84375,7.46875 3.85412,4.37503 5.7812,9.46878 5.78125,15.28125 z m -11.53125,0 c -4e-5,-2.99997 -0.95837,-5.59372 -2.875,-7.78125 -2.45837,-2.79163 -5.53128,-4.18747 -9.21875,-4.1875 -2.54169,3e-5 -4.84377,0.71358 -6.90625,2.14063 -2.06252,1.42711 -3.53127,3.32815 -4.40625,5.70312 -0.50002,1.35419 -0.75002,2.72919 -0.75,4.125 -2e-5,2.87502 0.95832,5.44793 2.875,7.71875 2.37498,2.81251 5.43747,4.21876 9.1875,4.21875 3.74997,10e-6 6.82288,-1.39582 9.21875,-4.1875 1.91663,-2.22915 2.87496,-4.81248 2.875,-7.75 z"
         style="font-weight:normal;fill:#d90000;fill-opacity:1"
         id="path3782"
         inkscape:connector-curvature="0" />
      <path
         d="m 522.10857,241.13449 -18.1875,42.65625 -8.625,0 -17.9375,-42.65625 12.0625,0 10.28125,25.9375 10.375,-25.9375 z"
         style="font-weight:normal;fill:#d90000;fill-opacity:1"
         id="path3784"
         inkscape:connector-curvature="0" />
      <path
         d="m 548.37859,283.79074 -24.28125,0 0,-42.65625 24.28125,0 0,9.28125 -13.1875,0 0,7.21875 12.46875,0 0,9.28125 -12.46875,0 0,7.59375 13.1875,0 z"
         style="font-weight:normal;fill:#d90000;fill-opacity:1"
         id="path3786"
         inkscape:connector-curvature="0" />
      <path
         d="m 190.16064,340.62731 -30.40625,0 0,-42.65625 11.09375,0 0,33.375 19.3125,0 z"
         style="font-size:20px;font-style:normal;font-weight:normal;line-height:125%;letter-spacing:0px;word-spacing:0px;fill:none;stroke:#a10000;stroke-width:3.9000001;stroke-miterlimit:4;stroke-opacity:1;stroke-dasharray:none;font-family:Sans"
         id="path3766-1"
         inkscape:connector-curvature="0"
         sodipodi:nodetypes="ccccccc" />
      <path
         d="m 229.34106,340.62731 -30.40625,0 0,-42.65625 11.09375,0 0,33.375 19.3125,0 z"
         style="font-size:20px;font-style:normal;font-weight:normal;line-height:125%;letter-spacing:0px;word-spacing:0px;fill:none;stroke:#d90000;stroke-width:3.9000001;stroke-miterlimit:4;stroke-opacity:1;stroke-dasharray:none;font-family:Sans"
         id="path3780-7"
         inkscape:connector-curvature="0"
         sodipodi:nodetypes="ccccccc" />
    </g>
  </g>
</svg>
